<!-- Generator: Adobe Illustrator 21.0.2, SVG Export Plug-In . SVG Version: 6.00 Build 0)  -->
<svg id="ART" enable-background="new 0 0 50 50" version="1.1" viewBox="0 0 32.7 35.3" xmlns="http://www.w3.org/2000/svg">
 <path d="m20.1 11.5c0 1.6-1 3-2.5 3.5v20.3h-2.5v-20.2c-1.5-0.5-2.5-1.9-2.5-3.5 0-2.1 1.7-3.7 3.8-3.7 2-0.1 3.7 1.6 3.7 3.6zm-13.5-9.7-1.8-1.8c-2.9 2.9-4.8 7-4.8 11.5s1.8 8.5 4.8 11.5l1.8-1.8c-2.5-2.5-4-5.9-4-9.7s1.5-7.2 4-9.7zm21.2-1.7-1.7 1.7c2.5 2.5 4 5.9 4 9.7s-1.5 7.2-4 9.7l1.8 1.8c2.9-2.9 4.8-7 4.8-11.5-0.1-4.4-1.9-8.5-4.9-11.4zm-19.4 3.5c-2 2-3.3 4.8-3.3 8 0 3.1 1.3 5.9 3.3 8l1.8-1.8c-1.6-1.6-2.6-3.8-2.6-6.2s1-4.6 2.6-6.2zm15.9 0-1.8 1.8c1.6 1.6 2.6 3.8 2.6 6.2s-1 4.6-2.6 6.2l1.8 1.8c2-2 3.3-4.8 3.3-8s-1.3-6-3.3-8z"/>
</svg>
