<?xml version="1.0" encoding="utf-8"?>
<!-- Generator: Adobe Illustrator 21.0.2, SVG Export Plug-In . SVG Version: 6.00 Build 0)  -->
<svg version="1.1" id="ART" xmlns="http://www.w3.org/2000/svg" xmlns:xlink="http://www.w3.org/1999/xlink" x="0px" y="0px"
	 viewBox="0 0 50 50" enable-background="new 0 0 50 50" xml:space="preserve">
<g>
	<path d="M25,37.5h10l7.5,7.5V20L25,37.5z M40,39l-4-4h-5l9-9V39z"/>
	<polygon points="15,35 18.8,35 13.8,43.7 8.8,35 12.5,35 12.5,30 15,30 	"/>
	<rect x="12.5" y="25" width="2.5" height="2.5"/>
	<rect x="12.5" y="20" width="2.5" height="2.5"/>
	<rect x="22.5" y="27.5" width="2.5" height="2.5"/>
	<rect x="22.5" y="22.5" width="2.5" height="2.5"/>
	<polygon points="25,15 25,20 22.5,20 22.5,15 18.7,15 23.7,6.3 28.7,15 	"/>
</g>
</svg>
