<svg xmlns="http://www.w3.org/2000/svg" viewBox="0 0 37.9 37.8"><path d="M11.5 26.3c4.4 4.4 9.7 8.2 14.9 10.7 2.5 1.2 4.7 1.5 8.1-1.9 1.8-1.8 2.7-3.7 3.1-4.7s.4-2.5-1.1-3.2c-1.4-.7-6.8-3.4-8.3-4.1-1.3-.6-2.3-.6-3.5.6l-1.8 1.8c-2.1-1-4.4-2.7-6.2-4.4s-3.2-4.2-4.3-6.2l1.8-1.8c1.2-1.2 1.3-2.1.6-3.5-.7-1.4-3.4-6.8-4.1-8.3C9.9-.1 8.4-.2 7.4.2S4.5 1.6 2.7 3.3C-.7 6.7-.4 8.9.8 11.4c2.5 5.2 6.3 10.5 10.7 14.9zm-3-23.8l4.3 8.5-3.3 3.3s2.2 4.9 5.7 8.4 8.4 5.7 8.4 5.7l3.3-3.3 8.5 4.2s-.8 2.2-2.6 4c-2.7 2.7-3.8 2.1-5.3 1.4-5-2.4-10-6.1-14.2-10.2S5.5 15.3 3.1 10.3C2.4 8.8 1.8 7.7 4.5 5c1.7-1.6 4-2.5 4-2.5z"/></svg>