<?xml version="1.0" encoding="utf-8"?>
<!-- Generator: Adobe Illustrator 21.0.2, SVG Export Plug-In . SVG Version: 6.00 Build 0)  -->
<svg version="1.1" id="ART" xmlns="http://www.w3.org/2000/svg" xmlns:xlink="http://www.w3.org/1999/xlink" x="0px" y="0px"
	 viewBox="0 0 50 50" enable-background="new 0 0 50 50" xml:space="preserve">
<g>
	<circle cx="25" cy="37.5" r="2.5"/>
	<path d="M19.5,32c1.5-1.2,3.4-2,5.5-2c2.1,0,4,0.8,5.5,2l1.8-1.8c-2-1.7-4.5-2.7-7.3-2.7c-2.8,0-5.3,1-7.3,2.7L19.5,32z"/>
	<path d="M32.5,21.6c-2.3-1-4.8-1.6-7.5-1.6c-4.9,0-9.2,1.9-12.5,4.9l1.7,1.8c2.9-2.6,6.7-4.2,10.8-4.2c2.7,0,5.3,0.7,7.5,1.9V21.6z
		"/>
	<circle cx="38.8" cy="23.1" r="1.9"/>
	<polygon points="40,37.5 42.5,37.5 42.5,40 35,40 35,37.5 37.5,37.5 37.5,30 35,30 35,27.5 40,27.5 	"/>
	<path d="M40,17.2c-4.3-3-9.4-4.7-15-4.7c-6.9,0-13.2,2.7-17.9,7.1l1.8,1.8C13.1,17.4,18.8,15,25,15c3.8,0,7.4,0.9,10.6,2.5H40V17.2
		z"/>
</g>
</svg>